<svg width="110" height="26" viewBox="0 0 110 26" fill="none" xmlns="http://www.w3.org/2000/svg">
<g clip-path="url(#clip0_348_681)">
<path d="M4.47327 8.92281C4.66956 9.61958 5.8463 13.537 9.75663 15.6513C13.1778 17.5013 16.4213 16.7429 17.2283 16.5278C20.5539 12.3419 19.9017 7.31617 21.9238 4.45178C20.9018 4.24703 19.6192 4.72443 19.0542 5.40657C15.7275 5.20183 15.5977 7.93041 13.4457 9.90895C13.2983 10.0448 12.1506 10.9599 10.6311 11.244C7.57141 11.8175 4.99257 9.42319 4.47431 8.92177L4.47327 8.92281Z" fill="#3269D9"/>
<path d="M24.2783 8.69714C24.0841 9.39496 22.9208 13.3165 19.0178 15.4455C15.6028 17.3081 12.3572 16.5622 11.5492 16.3501C8.20905 12.1768 8.84364 7.14899 6.81213 4.29192C7.83308 4.08299 9.11783 4.55621 9.6849 5.23627C13.0105 5.01898 13.1507 7.74652 15.3089 9.7167C15.4574 9.85251 16.6082 10.7624 18.1287 11.0413C21.1905 11.6033 23.7611 9.19961 24.2783 8.6961V8.69714Z" fill="#3269D9"/>
<path d="M23.6697 20.5882C17.4069 25.5785 8.78028 24.8879 3.85316 19.5269C-0.234773 15.0788 -1.19548 8.04531 1.57655 2.05328C3.69321 5.47864 7.36363 10.4615 13.2244 14.825C17.0662 17.6852 20.7533 19.4642 23.6707 20.5882H23.6697Z" fill="#3269D9"/>
<path d="M5.10675 20.723C5.80677 21.3174 6.7924 22.035 8.06988 22.6273C12.4943 24.6801 19.9452 25.0081 24.9139 19.4924C29.0943 14.8521 29.9802 7.78205 27.0545 2C24.9648 5.44311 21.3338 10.4574 15.5063 14.8709C11.6873 17.7635 8.01379 19.5739 5.10571 20.723H5.10675Z" fill="#3269D9"/>
<path d="M10.8492 6.84608C11.0196 6.84608 11.1577 6.70157 11.1577 6.52329C11.1577 6.34502 11.0196 6.2005 10.8492 6.2005C10.6789 6.2005 10.5408 6.34502 10.5408 6.52329C10.5408 6.70157 10.6789 6.84608 10.8492 6.84608Z" fill="white"/>
<path d="M18.1724 6.84608C18.3427 6.84608 18.4808 6.70157 18.4808 6.52329C18.4808 6.34502 18.3427 6.2005 18.1724 6.2005C18.002 6.2005 17.8639 6.34502 17.8639 6.52329C17.8639 6.70157 18.002 6.84608 18.1724 6.84608Z" fill="white"/>
</g>
<path d="M32.1835 21C32.0368 21 31.9121 20.956 31.8095 20.868C31.7068 20.7653 31.6555 20.6333 31.6555 20.472V6.15C31.6555 5.98867 31.7068 5.85667 31.8095 5.754C31.9121 5.65133 32.0368 5.6 32.1835 5.6H34.1855C34.3468 5.6 34.4715 5.65133 34.5595 5.754C34.6621 5.85667 34.7135 5.98867 34.7135 6.15V11.826H41.2035V6.15C41.2035 5.98867 41.2548 5.85667 41.3575 5.754C41.4601 5.65133 41.5848 5.6 41.7315 5.6H43.7115C43.8728 5.6 44.0048 5.65133 44.1075 5.754C44.2101 5.85667 44.2615 5.98867 44.2615 6.15V20.472C44.2615 20.6187 44.2101 20.7433 44.1075 20.846C44.0048 20.9487 43.8728 21 43.7115 21H41.7315C41.5848 21 41.4601 20.9487 41.3575 20.846C41.2548 20.7433 41.2035 20.6187 41.2035 20.472V14.576H34.7135V20.472C34.7135 20.6187 34.6621 20.7433 34.5595 20.846C34.4715 20.9487 34.3468 21 34.1855 21H32.1835ZM52.3468 21.22C50.7188 21.22 49.4281 20.7507 48.4748 19.812C47.5215 18.8733 47.0081 17.5387 46.9348 15.808C46.9201 15.6613 46.9128 15.478 46.9128 15.258C46.9128 15.0233 46.9201 14.84 46.9348 14.708C46.9935 13.608 47.2428 12.6547 47.6828 11.848C48.1375 11.0413 48.7608 10.4253 49.5528 10C50.3448 9.56 51.2761 9.34 52.3468 9.34C53.5348 9.34 54.5321 9.58933 55.3388 10.088C56.1455 10.572 56.7541 11.254 57.1648 12.134C57.5755 12.9993 57.7808 14.004 57.7808 15.148V15.61C57.7808 15.7567 57.7295 15.8813 57.6268 15.984C57.5241 16.0867 57.3921 16.138 57.2308 16.138H49.9268C49.9268 16.138 49.9268 16.16 49.9268 16.204C49.9268 16.248 49.9268 16.2847 49.9268 16.314C49.9415 16.8273 50.0368 17.304 50.2128 17.744C50.4035 18.1693 50.6748 18.514 51.0268 18.778C51.3935 19.042 51.8261 19.174 52.3248 19.174C52.7355 19.174 53.0801 19.1153 53.3588 18.998C53.6375 18.866 53.8648 18.7193 54.0408 18.558C54.2168 18.3967 54.3415 18.2647 54.4148 18.162C54.5468 17.986 54.6495 17.8833 54.7228 17.854C54.8108 17.81 54.9355 17.788 55.0968 17.788H56.9888C57.1355 17.788 57.2528 17.832 57.3408 17.92C57.4435 18.008 57.4875 18.118 57.4728 18.25C57.4581 18.4847 57.3335 18.7707 57.0988 19.108C56.8788 19.4453 56.5561 19.7753 56.1308 20.098C55.7055 20.4207 55.1701 20.692 54.5248 20.912C53.8941 21.1173 53.1681 21.22 52.3468 21.22ZM49.9268 14.29H54.7888V14.224C54.7888 13.652 54.6935 13.1533 54.5028 12.728C54.3121 12.3027 54.0335 11.9653 53.6668 11.716C53.3001 11.4667 52.8601 11.342 52.3468 11.342C51.8335 11.342 51.3935 11.4667 51.0268 11.716C50.6601 11.9653 50.3815 12.3027 50.1908 12.728C50.0148 13.1533 49.9268 13.652 49.9268 14.224V14.29ZM60.6661 21C60.5194 21 60.3947 20.9487 60.2921 20.846C60.1894 20.7433 60.1381 20.6187 60.1381 20.472V5.908C60.1381 5.76133 60.1894 5.63667 60.2921 5.534C60.3947 5.43133 60.5194 5.38 60.6661 5.38H62.4921C62.6387 5.38 62.7634 5.43133 62.8661 5.534C62.9687 5.63667 63.0201 5.76133 63.0201 5.908V20.472C63.0201 20.6187 62.9687 20.7433 62.8661 20.846C62.7634 20.9487 62.6387 21 62.4921 21H60.6661ZM66.4883 25.18C66.3417 25.18 66.217 25.1287 66.1143 25.026C66.0117 24.9233 65.9603 24.7987 65.9603 24.652V10.088C65.9603 9.94133 66.0117 9.81667 66.1143 9.714C66.217 9.61133 66.3417 9.56 66.4883 9.56H68.2263C68.3877 9.56 68.5123 9.61133 68.6003 9.714C68.703 9.81667 68.7543 9.94133 68.7543 10.088V10.968C69.1063 10.4987 69.5683 10.11 70.1403 9.802C70.7123 9.494 71.4237 9.34 72.2743 9.34C73.0517 9.34 73.7263 9.46467 74.2983 9.714C74.8703 9.96333 75.347 10.3227 75.7283 10.792C76.1097 11.2467 76.403 11.7893 76.6083 12.42C76.8137 13.0507 76.931 13.7473 76.9603 14.51C76.975 14.7593 76.9823 15.016 76.9823 15.28C76.9823 15.544 76.975 15.808 76.9603 16.072C76.9457 16.8053 76.8357 17.4873 76.6303 18.118C76.425 18.734 76.1243 19.2767 75.7283 19.746C75.347 20.2007 74.8703 20.56 74.2983 20.824C73.7263 21.088 73.0517 21.22 72.2743 21.22C71.4823 21.22 70.8077 21.0807 70.2503 20.802C69.693 20.5087 69.2383 20.1273 68.8863 19.658V24.652C68.8863 24.7987 68.835 24.9233 68.7323 25.026C68.6443 25.1287 68.5197 25.18 68.3583 25.18H66.4883ZM71.4603 18.866C72.091 18.866 72.5823 18.734 72.9343 18.47C73.2863 18.1913 73.5357 17.832 73.6823 17.392C73.8437 16.952 73.939 16.468 73.9683 15.94C73.9977 15.5 73.9977 15.06 73.9683 14.62C73.939 14.092 73.8437 13.608 73.6823 13.168C73.5357 12.728 73.2863 12.376 72.9343 12.112C72.5823 11.8333 72.091 11.694 71.4603 11.694C70.859 11.694 70.3677 11.8333 69.9863 12.112C69.6197 12.3907 69.3483 12.75 69.1723 13.19C69.011 13.6153 68.9157 14.0553 68.8863 14.51C68.8717 14.774 68.8643 15.0527 68.8643 15.346C68.8643 15.6393 68.8717 15.9253 68.8863 16.204C68.901 16.644 69.0037 17.0693 69.1943 17.48C69.385 17.876 69.6637 18.206 70.0303 18.47C70.397 18.734 70.8737 18.866 71.4603 18.866Z" fill="#3269D9"/>
<path d="M80.7484 21C80.5871 21 80.4551 20.9487 80.3524 20.846C80.2498 20.7433 80.1984 20.6187 80.1984 20.472V6.15C80.1984 5.98867 80.2498 5.85667 80.3524 5.754C80.4551 5.65133 80.5871 5.6 80.7484 5.6H82.4864C82.6918 5.6 82.8458 5.65867 82.9484 5.776C83.0511 5.87867 83.1171 5.95933 83.1464 6.018L87.3924 13.938L91.6824 6.018C91.7118 5.95933 91.7778 5.87867 91.8804 5.776C91.9831 5.65867 92.1371 5.6 92.3424 5.6H94.0584C94.2198 5.6 94.3518 5.65133 94.4544 5.754C94.5571 5.85667 94.6084 5.98867 94.6084 6.15V20.472C94.6084 20.6187 94.5571 20.7433 94.4544 20.846C94.3518 20.9487 94.2198 21 94.0584 21H92.2104C92.0491 21 91.9171 20.9487 91.8144 20.846C91.7264 20.7433 91.6824 20.6187 91.6824 20.472V10.946L88.6024 16.82C88.5291 16.952 88.4338 17.0693 88.3164 17.172C88.1991 17.26 88.0451 17.304 87.8544 17.304H86.9524C86.7471 17.304 86.5858 17.26 86.4684 17.172C86.3658 17.0693 86.2778 16.952 86.2044 16.82L83.1244 10.946V20.472C83.1244 20.6187 83.0731 20.7433 82.9704 20.846C82.8678 20.9487 82.7431 21 82.5964 21H80.7484ZM98.5585 21C98.4118 21 98.2871 20.9487 98.1845 20.846C98.0818 20.7433 98.0305 20.6187 98.0305 20.472V6.15C98.0305 5.98867 98.0818 5.85667 98.1845 5.754C98.2871 5.65133 98.4118 5.6 98.5585 5.6H108.238C108.4 5.6 108.532 5.65133 108.634 5.754C108.737 5.85667 108.788 5.98867 108.788 6.15V7.602C108.788 7.74867 108.737 7.87333 108.634 7.976C108.532 8.07867 108.4 8.13 108.238 8.13H101V12.024H107.754C107.916 12.024 108.048 12.0753 108.15 12.178C108.253 12.266 108.304 12.3907 108.304 12.552V13.916C108.304 14.0773 108.253 14.2093 108.15 14.312C108.048 14.4 107.916 14.444 107.754 14.444H101V18.47H108.414C108.576 18.47 108.708 18.5213 108.81 18.624C108.913 18.7267 108.964 18.8587 108.964 19.02V20.472C108.964 20.6187 108.913 20.7433 108.81 20.846C108.708 20.9487 108.576 21 108.414 21H98.5585Z" fill="#3098F2"/>
<defs>
<clipPath id="clip0_348_681">
<rect width="28.7692" height="22" fill="white" transform="translate(0 2)"/>
</clipPath>
</defs>
</svg>
